<mxfile host="app.diagrams.net" agent="Mozilla/5.0 (Windows NT 10.0; Win64; x64) AppleWebKit/537.36 (KHTML, like Gecko) Chrome/132.0.0.0 YaBrowser/25.2.0.0 Safari/537.36" version="26.1.1">
  <diagram name="Страница — 1" id="DdyoLKUv60fv7VQdcR84">
    <mxGraphModel dx="1434" dy="791" grid="1" gridSize="10" guides="1" tooltips="1" connect="1" arrows="1" fold="1" page="1" pageScale="1" pageWidth="827" pageHeight="1169" math="0" shadow="0">
      <root>
        <mxCell id="0" />
        <mxCell id="1" parent="0" />
        <mxCell id="n1xbQwnH4i2rBIVr2vaq-2" value="" style="edgeStyle=orthogonalEdgeStyle;rounded=0;orthogonalLoop=1;jettySize=auto;html=1;fontFamily=Times New Roman;fontSize=14;" parent="1" source="bnACumZAh6A-GPEMyJIv-1" target="bnACumZAh6A-GPEMyJIv-15" edge="1">
          <mxGeometry relative="1" as="geometry" />
        </mxCell>
        <mxCell id="bnACumZAh6A-GPEMyJIv-1" value="Начало" style="ellipse;whiteSpace=wrap;html=1;fontFamily=Times New Roman;fontSize=14;" parent="1" vertex="1">
          <mxGeometry x="280" y="280" width="320" height="40" as="geometry" />
        </mxCell>
        <mxCell id="bnACumZAh6A-GPEMyJIv-15" value="&lt;p class=&quot;MsoNormal&quot;&gt;&lt;span style=&quot;background: rgb(255, 255, 255);&quot;&gt;Console&lt;/span&gt;&lt;span style=&quot;background: rgb(255, 255, 255);&quot;&gt;.WriteLine(&lt;/span&gt;&lt;span style=&quot;background: rgb(255, 255, 255);&quot;&gt;&quot;Введите значения для a,B,XO,Xk,delX,n соответственно&quot;&lt;/span&gt;&lt;span style=&quot;background: rgb(255, 255, 255);&quot;&gt;);&lt;/span&gt;&lt;/p&gt;&lt;p class=&quot;MsoNormal&quot;&gt;&lt;span style=&quot;color: light-dark(rgb(0, 0, 0), rgb(255, 255, 255)); background: rgb(255, 255, 255);&quot;&gt;double&lt;/span&gt;&lt;span style=&quot;color: light-dark(rgb(0, 0, 0), rgb(255, 255, 255)); background: rgb(255, 255, 255);&quot;&gt;&amp;nbsp;a = 0, b = 0, X0 = 0, XK = 0,&amp;nbsp;&lt;/span&gt;&lt;/p&gt;&lt;p class=&quot;MsoNormal&quot;&gt;&lt;span style=&quot;color: light-dark(rgb(0, 0, 0), rgb(255, 255, 255)); background: rgb(255, 255, 255);&quot;&gt;delX = 0, eps = 0.001, n = 0&lt;/span&gt;&lt;/p&gt;" style="shape=parallelogram;perimeter=parallelogramPerimeter;whiteSpace=wrap;html=1;fixedSize=1;fontFamily=Times New Roman;fontSize=14;" parent="1" vertex="1">
          <mxGeometry x="280" y="360" width="320" height="120" as="geometry" />
        </mxCell>
        <mxCell id="3u93coA4F01fra3XvXcx-12" value="" style="edgeStyle=orthogonalEdgeStyle;rounded=0;orthogonalLoop=1;jettySize=auto;html=1;fontFamily=Times New Roman;fontSize=14;" parent="1" source="bnACumZAh6A-GPEMyJIv-21" target="3u93coA4F01fra3XvXcx-2" edge="1">
          <mxGeometry relative="1" as="geometry" />
        </mxCell>
        <mxCell id="bnACumZAh6A-GPEMyJIv-21" value="X0 &amp;lt;= XK ?" style="rhombus;whiteSpace=wrap;html=1;fontFamily=Times New Roman;fontSize=14;" parent="1" vertex="1">
          <mxGeometry x="280" y="520" width="320" height="40" as="geometry" />
        </mxCell>
        <mxCell id="obwopDodG0SqcmIw1uLM-30" value="" style="edgeStyle=orthogonalEdgeStyle;rounded=0;orthogonalLoop=1;jettySize=auto;html=1;fontFamily=Times New Roman;fontSize=14;" parent="1" source="bnACumZAh6A-GPEMyJIv-23" target="obwopDodG0SqcmIw1uLM-24" edge="1">
          <mxGeometry relative="1" as="geometry" />
        </mxCell>
        <mxCell id="bnACumZAh6A-GPEMyJIv-23" value="&lt;p class=&quot;MsoNormal&quot;&gt;exponent = Math.Pow(Math.Abs(X0) + eps, a) * Math.Sign(X0);&lt;/p&gt;&lt;p class=&quot;MsoNormal&quot;&gt;numerator = (0.5 * Math.Cos(exponent) + b) * Math.Cos(cubeRoot);&lt;/p&gt;&lt;p class=&quot;MsoNormal&quot;&gt;result = (numerator / denominatorValue) + Math.Pow(a, 3) * Math.Exp(X0);&lt;/p&gt;" style="rounded=0;whiteSpace=wrap;html=1;fontFamily=Times New Roman;fontSize=14;" parent="1" vertex="1">
          <mxGeometry x="280" y="890" width="320" height="130" as="geometry" />
        </mxCell>
        <mxCell id="bnACumZAh6A-GPEMyJIv-29" value="&lt;p class=&quot;MsoNormal&quot;&gt;&lt;font&gt;&lt;span style=&quot;background: rgb(255, 255, 255);&quot;&gt;&amp;nbsp;&lt;/span&gt;&lt;span style=&quot;background: rgb(255, 255, 255);&quot;&gt;Console&lt;/span&gt;&lt;span style=&quot;background: rgb(255, 255, 255);&quot;&gt;.WriteLine(&lt;/span&gt;&lt;span style=&quot;background: rgb(255, 255, 255);&quot;&gt;$&quot;В точке x=&lt;/span&gt;&lt;span style=&quot;background: rgb(255, 255, 255);&quot;&gt;{X0:&lt;/span&gt;&lt;span style=&quot;background: rgb(255, 255, 255);&quot;&gt;F2&lt;/span&gt;&lt;span style=&quot;background: rgb(255, 255, 255);&quot;&gt;}&lt;/span&gt;&lt;span style=&quot;background: rgb(255, 255, 255);&quot;&gt;&amp;nbsp;функция равна = &lt;/span&gt;&lt;span style=&quot;background: rgb(255, 255, 255);&quot;&gt;{j:&lt;/span&gt;&lt;span style=&quot;background: rgb(255, 255, 255);&quot;&gt;F4&lt;/span&gt;&lt;span style=&quot;background: rgb(255, 255, 255);&quot;&gt;}&lt;/span&gt;&lt;span style=&quot;background: rgb(255, 255, 255);&quot;&gt;&quot;&lt;/span&gt;&lt;span style=&quot;background: rgb(255, 255, 255);&quot;&gt;);&lt;/span&gt;&lt;/font&gt;&lt;span style=&quot;background: rgb(255, 255, 255);&quot;&gt;&lt;/span&gt;&lt;/p&gt;" style="shape=document;whiteSpace=wrap;html=1;boundedLbl=1;fontFamily=Times New Roman;fontSize=14;" parent="1" vertex="1">
          <mxGeometry x="280" y="1400" width="320" height="80" as="geometry" />
        </mxCell>
        <mxCell id="bnACumZAh6A-GPEMyJIv-33" value="&lt;font&gt;&amp;nbsp;X0 += delX&lt;/font&gt;" style="rounded=0;whiteSpace=wrap;html=1;fontFamily=Times New Roman;fontSize=14;" parent="1" vertex="1">
          <mxGeometry x="280" y="1520" width="320" height="40" as="geometry" />
        </mxCell>
        <mxCell id="bnACumZAh6A-GPEMyJIv-46" value="&lt;font&gt;Конец&lt;/font&gt;" style="ellipse;whiteSpace=wrap;html=1;fontFamily=Times New Roman;fontSize=14;" parent="1" vertex="1">
          <mxGeometry x="280" y="1660" width="320" height="40" as="geometry" />
        </mxCell>
        <mxCell id="3u93coA4F01fra3XvXcx-13" value="" style="edgeStyle=orthogonalEdgeStyle;rounded=0;orthogonalLoop=1;jettySize=auto;html=1;fontFamily=Times New Roman;fontSize=14;" parent="1" source="3u93coA4F01fra3XvXcx-2" target="3u93coA4F01fra3XvXcx-3" edge="1">
          <mxGeometry relative="1" as="geometry" />
        </mxCell>
        <mxCell id="3u93coA4F01fra3XvXcx-2" value="&lt;div&gt;&amp;nbsp;valueForRoot = Math.Pow(a, 2) + b - n;&lt;/div&gt;" style="rounded=0;whiteSpace=wrap;html=1;fontFamily=Times New Roman;fontSize=14;" parent="1" vertex="1">
          <mxGeometry x="280" y="600" width="320" height="60" as="geometry" />
        </mxCell>
        <mxCell id="3u93coA4F01fra3XvXcx-14" value="" style="edgeStyle=orthogonalEdgeStyle;rounded=0;orthogonalLoop=1;jettySize=auto;html=1;fontFamily=Times New Roman;fontSize=14;" parent="1" source="3u93coA4F01fra3XvXcx-3" target="3u93coA4F01fra3XvXcx-4" edge="1">
          <mxGeometry relative="1" as="geometry" />
        </mxCell>
        <mxCell id="3u93coA4F01fra3XvXcx-3" value="valueForRoot &amp;gt;= 0?" style="rhombus;whiteSpace=wrap;html=1;fontFamily=Times New Roman;fontSize=14;" parent="1" vertex="1">
          <mxGeometry x="280" y="700" width="320" height="50" as="geometry" />
        </mxCell>
        <mxCell id="3u93coA4F01fra3XvXcx-4" value="&amp;nbsp;cubeRoot = Math.Pow(valueForRoot, 1.0 / 3.0);" style="rounded=0;whiteSpace=wrap;html=1;fontFamily=Times New Roman;fontSize=14;" parent="1" vertex="1">
          <mxGeometry x="280" y="790" width="320" height="60" as="geometry" />
        </mxCell>
        <mxCell id="3u93coA4F01fra3XvXcx-5" value="" style="endArrow=none;html=1;rounded=0;fontFamily=Times New Roman;fontSize=14;" parent="1" edge="1">
          <mxGeometry width="50" height="50" relative="1" as="geometry">
            <mxPoint x="600" y="725.5" as="sourcePoint" />
            <mxPoint x="800" y="725.5" as="targetPoint" />
            <Array as="points">
              <mxPoint x="700" y="725.5" />
            </Array>
          </mxGeometry>
        </mxCell>
        <mxCell id="3u93coA4F01fra3XvXcx-6" value="cubeRoot = -Math.Pow(Math.Abs(valueForRoot), 1.0 / 3.0);" style="rounded=0;whiteSpace=wrap;html=1;fontFamily=Times New Roman;fontSize=14;" parent="1" vertex="1">
          <mxGeometry x="640" y="790" width="320" height="60" as="geometry" />
        </mxCell>
        <mxCell id="3u93coA4F01fra3XvXcx-8" value="" style="endArrow=none;html=1;rounded=0;fontFamily=Times New Roman;fontSize=14;" parent="1" edge="1">
          <mxGeometry width="50" height="50" relative="1" as="geometry">
            <mxPoint x="799.5" y="880" as="sourcePoint" />
            <mxPoint x="799.5" y="850" as="targetPoint" />
          </mxGeometry>
        </mxCell>
        <mxCell id="3u93coA4F01fra3XvXcx-22" value="" style="endArrow=classic;html=1;rounded=0;entryX=0;entryY=0.5;entryDx=0;entryDy=0;fontFamily=Times New Roman;fontSize=14;" parent="1" target="bnACumZAh6A-GPEMyJIv-21" edge="1">
          <mxGeometry width="50" height="50" relative="1" as="geometry">
            <mxPoint x="240" y="540" as="sourcePoint" />
            <mxPoint x="290" y="490" as="targetPoint" />
          </mxGeometry>
        </mxCell>
        <mxCell id="3u93coA4F01fra3XvXcx-29" value="&lt;font&gt;нет&lt;/font&gt;" style="text;html=1;align=center;verticalAlign=middle;whiteSpace=wrap;rounded=0;fontFamily=Times New Roman;fontSize=14;" parent="1" vertex="1">
          <mxGeometry x="580" y="510" width="60" height="30" as="geometry" />
        </mxCell>
        <mxCell id="3u93coA4F01fra3XvXcx-30" value="&lt;font&gt;да&lt;/font&gt;" style="text;html=1;align=center;verticalAlign=middle;whiteSpace=wrap;rounded=0;fontFamily=Times New Roman;fontSize=14;" parent="1" vertex="1">
          <mxGeometry x="384" y="560" width="60" height="30" as="geometry" />
        </mxCell>
        <mxCell id="3u93coA4F01fra3XvXcx-31" value="&lt;font&gt;нет&lt;/font&gt;" style="text;html=1;align=center;verticalAlign=middle;whiteSpace=wrap;rounded=0;fontFamily=Times New Roman;fontSize=14;" parent="1" vertex="1">
          <mxGeometry x="580" y="700" width="60" height="30" as="geometry" />
        </mxCell>
        <mxCell id="3u93coA4F01fra3XvXcx-32" value="&lt;font&gt;да&lt;/font&gt;" style="text;html=1;align=center;verticalAlign=middle;whiteSpace=wrap;rounded=0;fontFamily=Times New Roman;fontSize=14;" parent="1" vertex="1">
          <mxGeometry x="384" y="760" width="60" height="30" as="geometry" />
        </mxCell>
        <mxCell id="n1xbQwnH4i2rBIVr2vaq-4" value="" style="endArrow=classic;html=1;rounded=0;entryX=0.5;entryY=0;entryDx=0;entryDy=0;fontFamily=Times New Roman;fontSize=14;" parent="1" target="bnACumZAh6A-GPEMyJIv-21" edge="1">
          <mxGeometry width="50" height="50" relative="1" as="geometry">
            <mxPoint x="440" y="480" as="sourcePoint" />
            <mxPoint x="490" y="430" as="targetPoint" />
          </mxGeometry>
        </mxCell>
        <mxCell id="n1xbQwnH4i2rBIVr2vaq-10" value="&lt;p class=&quot;MsoNormal&quot;&gt;&lt;span style=&quot;background-color: rgb(255, 255, 255);&quot;&gt;&amp;nbsp;Console.WriteLine($&quot;В точке x={X0:F2} функция не определена (деление на ноль).&quot;)&lt;/span&gt;&lt;/p&gt;" style="shape=document;whiteSpace=wrap;html=1;boundedLbl=1;fontFamily=Times New Roman;fontSize=14;" parent="1" vertex="1">
          <mxGeometry x="640" y="1290" width="320" height="80" as="geometry" />
        </mxCell>
        <mxCell id="n1xbQwnH4i2rBIVr2vaq-12" value="" style="endArrow=classic;html=1;rounded=0;fontFamily=Times New Roman;fontSize=14;" parent="1" edge="1">
          <mxGeometry width="50" height="50" relative="1" as="geometry">
            <mxPoint x="800" y="880" as="sourcePoint" />
            <mxPoint x="440" y="880" as="targetPoint" />
          </mxGeometry>
        </mxCell>
        <mxCell id="n1xbQwnH4i2rBIVr2vaq-33" value="" style="endArrow=none;html=1;rounded=0;fontFamily=Times New Roman;fontSize=14;" parent="1" edge="1">
          <mxGeometry width="50" height="50" relative="1" as="geometry">
            <mxPoint x="600" y="540" as="sourcePoint" />
            <mxPoint x="1000" y="540" as="targetPoint" />
          </mxGeometry>
        </mxCell>
        <mxCell id="obwopDodG0SqcmIw1uLM-1" value="&amp;nbsp;(Math.Abs(denominatorValue) &amp;lt; eps)?" style="rhombus;whiteSpace=wrap;html=1;fontFamily=Times New Roman;fontSize=14;" parent="1" vertex="1">
          <mxGeometry x="280" y="1240" width="320" height="60" as="geometry" />
        </mxCell>
        <mxCell id="obwopDodG0SqcmIw1uLM-29" value="" style="edgeStyle=orthogonalEdgeStyle;rounded=0;orthogonalLoop=1;jettySize=auto;html=1;fontFamily=Times New Roman;fontSize=14;" parent="1" source="obwopDodG0SqcmIw1uLM-24" target="obwopDodG0SqcmIw1uLM-1" edge="1">
          <mxGeometry relative="1" as="geometry" />
        </mxCell>
        <mxCell id="obwopDodG0SqcmIw1uLM-24" value="X0 &amp;lt; 0 &amp;amp;&amp;amp; a % 1 != 0?" style="rhombus;whiteSpace=wrap;html=1;fontFamily=Times New Roman;fontSize=14;" parent="1" vertex="1">
          <mxGeometry x="280" y="1060" width="320" height="60" as="geometry" />
        </mxCell>
        <mxCell id="obwopDodG0SqcmIw1uLM-25" value="&lt;p class=&quot;MsoNormal&quot;&gt;&lt;span style=&quot;background-color: rgb(255, 255, 255);&quot;&gt;&amp;nbsp;Console.WriteLine($&quot;В точке x={X0:F2} возведение в дробную степень не определено.&quot;);&lt;/span&gt;&lt;/p&gt;" style="shape=document;whiteSpace=wrap;html=1;boundedLbl=1;fontFamily=Times New Roman;fontSize=14;" parent="1" vertex="1">
          <mxGeometry x="640" y="1120" width="320" height="80" as="geometry" />
        </mxCell>
        <mxCell id="obwopDodG0SqcmIw1uLM-26" value="" style="endArrow=none;html=1;rounded=0;fontFamily=Times New Roman;fontSize=14;" parent="1" edge="1">
          <mxGeometry width="50" height="50" relative="1" as="geometry">
            <mxPoint x="600" y="1090" as="sourcePoint" />
            <mxPoint x="800" y="1090" as="targetPoint" />
            <Array as="points">
              <mxPoint x="700" y="1090" />
            </Array>
          </mxGeometry>
        </mxCell>
        <mxCell id="obwopDodG0SqcmIw1uLM-31" value="" style="endArrow=classic;html=1;rounded=0;fontFamily=Times New Roman;fontSize=14;" parent="1" edge="1">
          <mxGeometry width="50" height="50" relative="1" as="geometry">
            <mxPoint x="800" y="1220" as="sourcePoint" />
            <mxPoint x="440" y="1220" as="targetPoint" />
          </mxGeometry>
        </mxCell>
        <mxCell id="obwopDodG0SqcmIw1uLM-48" value="да" style="text;html=1;align=center;verticalAlign=middle;whiteSpace=wrap;rounded=0;fontFamily=Times New Roman;fontSize=14;" parent="1" vertex="1">
          <mxGeometry x="570" y="1060" width="60" height="30" as="geometry" />
        </mxCell>
        <mxCell id="obwopDodG0SqcmIw1uLM-49" value="нет" style="text;html=1;align=center;verticalAlign=middle;whiteSpace=wrap;rounded=0;fontFamily=Times New Roman;fontSize=14;" parent="1" vertex="1">
          <mxGeometry x="384" y="1120" width="60" height="30" as="geometry" />
        </mxCell>
        <mxCell id="obwopDodG0SqcmIw1uLM-50" value="да" style="text;html=1;align=center;verticalAlign=middle;whiteSpace=wrap;rounded=0;fontFamily=Times New Roman;fontSize=14;" parent="1" vertex="1">
          <mxGeometry x="580" y="1240" width="60" height="30" as="geometry" />
        </mxCell>
        <mxCell id="obwopDodG0SqcmIw1uLM-51" value="нет" style="text;html=1;align=center;verticalAlign=middle;whiteSpace=wrap;rounded=0;fontFamily=Times New Roman;fontSize=14;" parent="1" vertex="1">
          <mxGeometry x="384" y="1300" width="60" height="30" as="geometry" />
        </mxCell>
        <mxCell id="QnjXESrNDZajvRV2NB1a-2" value="" style="endArrow=classic;html=1;rounded=0;entryX=0.5;entryY=0;entryDx=0;entryDy=0;" edge="1" parent="1" target="obwopDodG0SqcmIw1uLM-25">
          <mxGeometry width="50" height="50" relative="1" as="geometry">
            <mxPoint x="800" y="1090" as="sourcePoint" />
            <mxPoint x="850" y="1050" as="targetPoint" />
          </mxGeometry>
        </mxCell>
        <mxCell id="QnjXESrNDZajvRV2NB1a-3" value="" style="endArrow=classic;html=1;rounded=0;entryX=0.5;entryY=0;entryDx=0;entryDy=0;" edge="1" parent="1" target="3u93coA4F01fra3XvXcx-6">
          <mxGeometry width="50" height="50" relative="1" as="geometry">
            <mxPoint x="800" y="726" as="sourcePoint" />
            <mxPoint x="850" y="676" as="targetPoint" />
          </mxGeometry>
        </mxCell>
        <mxCell id="QnjXESrNDZajvRV2NB1a-5" value="" style="endArrow=classic;html=1;rounded=0;entryX=0.5;entryY=0;entryDx=0;entryDy=0;" edge="1" parent="1" target="bnACumZAh6A-GPEMyJIv-23">
          <mxGeometry width="50" height="50" relative="1" as="geometry">
            <mxPoint x="440" y="850" as="sourcePoint" />
            <mxPoint x="490" y="800" as="targetPoint" />
          </mxGeometry>
        </mxCell>
        <mxCell id="QnjXESrNDZajvRV2NB1a-7" value="" style="endArrow=classic;html=1;rounded=0;entryX=0.5;entryY=0;entryDx=0;entryDy=0;" edge="1" parent="1" target="bnACumZAh6A-GPEMyJIv-29">
          <mxGeometry width="50" height="50" relative="1" as="geometry">
            <mxPoint x="440" y="1300" as="sourcePoint" />
            <mxPoint x="490" y="1250" as="targetPoint" />
          </mxGeometry>
        </mxCell>
        <mxCell id="QnjXESrNDZajvRV2NB1a-8" value="" style="endArrow=none;html=1;rounded=0;" edge="1" parent="1">
          <mxGeometry width="50" height="50" relative="1" as="geometry">
            <mxPoint x="600" y="1270" as="sourcePoint" />
            <mxPoint x="800" y="1270" as="targetPoint" />
          </mxGeometry>
        </mxCell>
        <mxCell id="QnjXESrNDZajvRV2NB1a-9" value="" style="endArrow=classic;html=1;rounded=0;entryX=0.5;entryY=0;entryDx=0;entryDy=0;" edge="1" parent="1" target="n1xbQwnH4i2rBIVr2vaq-10">
          <mxGeometry width="50" height="50" relative="1" as="geometry">
            <mxPoint x="800" y="1270" as="sourcePoint" />
            <mxPoint x="850" y="1220" as="targetPoint" />
          </mxGeometry>
        </mxCell>
        <mxCell id="QnjXESrNDZajvRV2NB1a-10" value="" style="endArrow=none;html=1;rounded=0;" edge="1" parent="1">
          <mxGeometry width="50" height="50" relative="1" as="geometry">
            <mxPoint x="800" y="1360" as="sourcePoint" />
            <mxPoint x="800" y="1390" as="targetPoint" />
          </mxGeometry>
        </mxCell>
        <mxCell id="QnjXESrNDZajvRV2NB1a-11" value="" style="endArrow=classic;html=1;rounded=0;" edge="1" parent="1">
          <mxGeometry width="50" height="50" relative="1" as="geometry">
            <mxPoint x="800" y="1390" as="sourcePoint" />
            <mxPoint x="440" y="1390" as="targetPoint" />
          </mxGeometry>
        </mxCell>
        <mxCell id="QnjXESrNDZajvRV2NB1a-12" value="" style="endArrow=classic;html=1;rounded=0;entryX=0.5;entryY=0;entryDx=0;entryDy=0;" edge="1" parent="1" target="bnACumZAh6A-GPEMyJIv-33">
          <mxGeometry width="50" height="50" relative="1" as="geometry">
            <mxPoint x="440" y="1470" as="sourcePoint" />
            <mxPoint x="490" y="1420" as="targetPoint" />
          </mxGeometry>
        </mxCell>
        <mxCell id="QnjXESrNDZajvRV2NB1a-13" value="" style="endArrow=none;html=1;rounded=0;" edge="1" parent="1">
          <mxGeometry width="50" height="50" relative="1" as="geometry">
            <mxPoint x="440" y="1590" as="sourcePoint" />
            <mxPoint x="440" y="1560" as="targetPoint" />
          </mxGeometry>
        </mxCell>
        <mxCell id="QnjXESrNDZajvRV2NB1a-14" value="" style="endArrow=none;html=1;rounded=0;" edge="1" parent="1">
          <mxGeometry width="50" height="50" relative="1" as="geometry">
            <mxPoint x="240" y="1590" as="sourcePoint" />
            <mxPoint x="440" y="1590" as="targetPoint" />
          </mxGeometry>
        </mxCell>
        <mxCell id="QnjXESrNDZajvRV2NB1a-15" value="" style="endArrow=none;html=1;rounded=0;" edge="1" parent="1">
          <mxGeometry width="50" height="50" relative="1" as="geometry">
            <mxPoint x="240" y="1590" as="sourcePoint" />
            <mxPoint x="240" y="540" as="targetPoint" />
          </mxGeometry>
        </mxCell>
        <mxCell id="QnjXESrNDZajvRV2NB1a-16" value="" style="endArrow=none;html=1;rounded=0;" edge="1" parent="1">
          <mxGeometry width="50" height="50" relative="1" as="geometry">
            <mxPoint x="1000" y="1620" as="sourcePoint" />
            <mxPoint x="1000" y="540" as="targetPoint" />
          </mxGeometry>
        </mxCell>
        <mxCell id="QnjXESrNDZajvRV2NB1a-17" value="" style="endArrow=none;html=1;rounded=0;" edge="1" parent="1">
          <mxGeometry width="50" height="50" relative="1" as="geometry">
            <mxPoint x="440" y="1620" as="sourcePoint" />
            <mxPoint x="1000" y="1620" as="targetPoint" />
          </mxGeometry>
        </mxCell>
        <mxCell id="QnjXESrNDZajvRV2NB1a-18" value="" style="endArrow=classic;html=1;rounded=0;entryX=0.5;entryY=0;entryDx=0;entryDy=0;" edge="1" parent="1" target="bnACumZAh6A-GPEMyJIv-46">
          <mxGeometry width="50" height="50" relative="1" as="geometry">
            <mxPoint x="440" y="1620" as="sourcePoint" />
            <mxPoint x="490" y="1570" as="targetPoint" />
          </mxGeometry>
        </mxCell>
        <mxCell id="QnjXESrNDZajvRV2NB1a-19" value="" style="endArrow=none;html=1;rounded=0;" edge="1" parent="1">
          <mxGeometry width="50" height="50" relative="1" as="geometry">
            <mxPoint x="800" y="1220" as="sourcePoint" />
            <mxPoint x="800" y="1190" as="targetPoint" />
          </mxGeometry>
        </mxCell>
      </root>
    </mxGraphModel>
  </diagram>
</mxfile>
